<svg width="47" height="40" viewBox="0 0 47 40" fill="none" xmlns="http://www.w3.org/2000/svg">
<circle cx="20.5" cy="20" r="20" fill="white"/>
<path d="M13.3846 27.8571C16.5464 27.8571 19.2252 26.2536 19.2252 23.239C19.2252 21.379 18.1493 20.0534 16.3049 19.412C17.7102 18.8134 18.6324 17.7658 18.6324 16.205C18.6324 13.6822 16.1951 12.1428 13.3846 12.1428C10.6619 12.1428 8.11481 13.6608 8.11481 16.2478C8.11481 17.7658 8.9931 18.8775 10.4423 19.4334C8.6857 20.032 7.5 21.379 7.5 23.3246C7.5 26.3177 10.2666 27.8571 13.3846 27.8571ZM13.3846 25.7191C11.8036 25.7191 10.4423 24.7998 10.4423 23.0894C10.4423 21.379 11.8036 20.4596 13.4065 20.4596C15.0313 20.4596 16.3049 21.379 16.3049 23.068C16.3049 24.7784 15.0533 25.7191 13.3846 25.7191ZM13.4285 18.5996C12.0671 18.5996 10.9034 17.7871 10.9034 16.3974C10.9034 15.0291 12.0012 14.1953 13.3846 14.1953C14.7898 14.1953 15.8657 15.0719 15.8657 16.3761C15.8657 17.7658 14.8557 18.5996 13.4285 18.5996Z" fill="#1C1C1C"/>
<path d="M27.2024 27.8571C30.7595 27.8571 32.9991 25.7619 32.9991 22.6618C32.9991 19.69 30.8473 17.6802 27.8392 17.6802C25.9728 17.6802 24.6773 18.4713 23.9527 19.6472C24.0405 16.1623 25.4239 14.345 27.5318 14.345C29.0468 14.345 29.6616 15.0291 29.9471 16.1836H32.6698C32.2965 13.5111 30.4082 12.1428 27.5537 12.1428C23.799 12.1428 21.0544 15.0291 21.0544 20.3314V20.6948C21.0544 24.7356 22.6353 27.8571 27.2024 27.8571ZM27.1585 25.7619C25.38 25.7619 24.1284 24.586 24.1284 22.5549C24.1284 20.8659 25.38 19.6472 27.1585 19.6472C28.959 19.6472 30.1008 20.8872 30.1008 22.7259C30.1008 24.5432 28.9151 25.7619 27.1585 25.7619Z" fill="#1C1C1C"/>
<path d="M42.473 4.24047H43.1216V3.14156H43.4324L44.1486 4.24047H44.8243L44.0405 3.03814C44.3919 2.93471 44.6486 2.702 44.6486 2.27537V2.26244C44.6486 1.68067 44.2027 1.40918 43.5135 1.40918H42.473V4.24047ZM43.1216 2.71493V1.88752H43.5C43.8243 1.88752 44.0135 1.99095 44.0135 2.2883V2.30123C44.0135 2.57272 43.8378 2.71493 43.5 2.71493H43.1216ZM43.5 5.24887C42.1216 5.24887 41.0405 4.29218 41.0405 2.87007C41.0405 1.46089 42.0676 0.465417 43.5 0.465417C44.9324 0.465417 45.9595 1.44796 45.9595 2.85714C45.9595 4.26632 44.8919 5.24887 43.5 5.24887ZM43.5 5.71429C45.1757 5.71429 46.5 4.47317 46.5 2.85714C46.5 1.26697 45.2027 0 43.5 0C41.8243 0 40.5 1.2799 40.5 2.87007C40.5 4.4861 41.8378 5.71429 43.5 5.71429Z" fill="white"/>
</svg>
