<?xml version="1.0" encoding="UTF-8"?>
<svg xmlns="http://www.w3.org/2000/svg" width="160" height="40" viewBox="0 0 160 40" fill="none">
  <g clip-path="url(#clip0_2286_116)">
    <path d="M28.9384 0.648193L17.2452 15.8034V25.1325H11.8003V15.8034L0 0.648193H7.12301L14.7905 11.1299L22.4848 0.648193H28.9384Z" fill="white"></path>
    <path d="M32.1602 0.648193H37.6051V15.6053C37.6051 19.6755 40.1936 21.9808 44.3621 21.9808C48.5306 21.9808 51.0834 19.9817 51.0834 15.4702V0.648193H56.5284V15.3622C56.5284 20.9542 54.2076 25.7718 43.5231 25.7718C37.6408 25.7718 32.1602 22.7552 32.1602 16.3437V0.648193Z" fill="white"></path>
    <path d="M81.4325 8.41057C81.2986 5.35791 77.9691 3.99817 75.0146 3.99817C71.6227 3.99817 66.9811 6.0693 66.9811 12.886C66.9811 19.7027 71.6227 21.7738 75.0146 21.7738C79.4866 21.7738 81.4325 19.3695 81.7359 17.2984H87.3861C86.9488 23.8089 80.8612 25.781 74.6129 25.781C66.5437 25.781 61.3398 21.4767 61.3398 12.895C61.3398 4.31334 66.5437 0 74.9521 0C80.0935 0 86.8149 1.82799 87.0827 8.41057H81.4325Z" fill="white"></path>
    <path d="M101.9 0.648193H108.755L121.162 25.1325H114.709L111.924 19.6395H97.9366L95.3837 25.1325H89.5371L101.9 0.648193ZM109.969 15.6413L104.926 4.99756L99.8824 15.6413H109.969Z" fill="white"></path>
    <path d="M124.822 0.648193H139.381C144.728 0.648193 148.726 2.37713 148.726 7.23077C148.726 11.4991 145.772 13.264 142.041 13.5342V13.6062C147.584 13.8404 148.021 16.3527 148.289 20.9002L148.459 25.1415H142.71C142.71 25.1415 142.701 22.7012 142.63 21.2784C142.398 16.4608 141.318 15.4793 136.007 15.4793H130.258V25.1415H124.813V0.648193H124.822ZM130.267 11.6702H137.328C140.523 11.6702 143.076 10.9588 143.076 8.00519C143.076 5.05159 140.452 4.64637 137.56 4.64637H130.267V11.6702Z" fill="white"></path>
    <path d="M154.555 0.648193H160V25.1325H154.555V0.648193Z" fill="white"></path>
    <path d="M54.6012 38.253C54.6637 38.8563 55.1011 39.2255 56.0026 39.2255C56.9042 39.2255 57.2791 38.8203 57.2791 38.4511C57.2791 38.0819 57.0202 37.9108 56.4579 37.8388L55.4135 37.6947C54.0746 37.5146 53.6372 36.9383 53.6372 36.2719C53.6372 35.0923 54.7262 34.624 55.9045 34.624C57.3773 34.624 58.1806 35.2544 58.2163 36.2809H57.0827C57.0381 35.6146 56.5828 35.3804 55.8063 35.3804C55.3421 35.3804 54.8244 35.6146 54.8244 36.0828C54.8244 36.479 55.11 36.6411 55.5563 36.7042L57.0024 36.9113C58.2074 37.0824 58.4573 37.7937 58.4573 38.325C58.4573 39.3786 57.5647 39.9999 55.8509 39.9999C54.387 39.9999 53.4766 39.3606 53.4766 38.271H54.6102L54.6012 38.253Z" fill="white"></path>
    <path d="M61.8754 34.7502H63.3036L65.8832 39.847H64.5443L63.9641 38.7034H61.0542L60.5186 39.847H59.3047L61.8754 34.7502ZM64.098 33.4625C63.9552 34.0929 63.6517 34.363 63.1697 34.363C63.0358 34.363 62.8573 34.336 62.6787 34.282L62.3039 34.1739C62.1253 34.1289 61.9914 34.0929 61.8665 34.0929C61.6612 34.0929 61.563 34.1559 61.4826 34.363H61.0006C61.0453 33.8227 61.3755 33.4625 61.929 33.4625C62.0271 33.4625 62.1164 33.4805 62.3842 33.5616L62.7591 33.6696C62.9555 33.7237 63.1161 33.7507 63.1965 33.7507C63.4107 33.7507 63.5356 33.6426 63.5892 33.4625H64.0891H64.098ZM63.5535 37.8749L62.5002 35.6597L61.4469 37.8749H63.5446H63.5535Z" fill="white"></path>
    <path d="M69.5784 34.615C71.435 34.615 72.524 35.5155 72.524 37.2984C72.524 39.0814 71.444 39.9819 69.5784 39.9819C67.7129 39.9819 66.6328 39.0814 66.6328 37.2984C66.6328 35.5155 67.7129 34.615 69.5784 34.615ZM69.5784 39.1445C70.6763 39.1445 71.3458 38.4961 71.3458 37.2984C71.3458 36.1008 70.6763 35.4524 69.5784 35.4524C68.4805 35.4524 67.8111 36.1008 67.8111 37.2984C67.8111 38.4961 68.4894 39.1445 69.5784 39.1445Z" fill="white"></path>
    <path d="M77.0674 34.7502H79.5221C81.1198 34.7502 81.7714 35.3085 81.7714 36.3891C81.7714 36.9835 81.4769 37.938 79.7006 37.938H78.201V39.847H77.0674V34.7502ZM78.201 37.1095H79.5221C80.1201 37.1095 80.6021 36.9294 80.6021 36.3801C80.6021 35.6868 79.9684 35.5787 79.3257 35.5787H78.2099V37.1005L78.201 37.1095Z" fill="white"></path>
    <path d="M84.512 34.7502H85.9402L88.5198 39.847H87.1809L86.6007 38.7034H83.6908L83.1641 39.847H81.9502L84.5209 34.7502H84.512ZM86.1901 37.8659L85.1368 35.6507L84.0835 37.8659H86.1812H86.1901Z" fill="white"></path>
    <path d="M89.4121 34.7502H90.5457V37.8659C90.5457 38.7124 91.0813 39.1897 91.956 39.1897C92.8308 39.1897 93.3574 38.7754 93.3574 37.8389V34.7592H94.4911V37.8209C94.4911 38.9825 94.009 39.9911 91.7865 39.9911C90.5636 39.9911 89.421 39.3607 89.421 38.028V34.7592L89.4121 34.7502Z" fill="white"></path>
    <path d="M96.0801 34.7501H97.2137V39.0094H99.9897V39.8379H96.0801V34.7411V34.7501Z" fill="white"></path>
    <path d="M103.935 34.615C105.791 34.615 106.88 35.5155 106.88 37.2984C106.88 39.0814 105.791 39.9819 103.935 39.9819C102.078 39.9819 100.989 39.0814 100.989 37.2984C100.989 35.5155 102.069 34.615 103.935 34.615ZM103.935 39.1445C105.033 39.1445 105.702 38.4961 105.702 37.2984C105.702 36.1008 105.033 35.4524 103.935 35.4524C102.837 35.4524 102.168 36.1008 102.168 37.2984C102.168 38.4961 102.846 39.1445 103.935 39.1445Z" fill="white"></path>
  </g>
  <defs>
    <clipPath id="clip0_2286_116">
      <rect width="160" height="40" fill="white"></rect>
    </clipPath>
  </defs>
</svg>
