<svg width="25" height="25" viewBox="0 0 25 25" fill="none" xmlns="http://www.w3.org/2000/svg">
<g clip-path="url(#clip0_2286_233)">
<path d="M9.80176 22.5024C10.354 22.5024 10.8018 22.0547 10.8018 21.5024C10.8018 20.9502 10.354 20.5024 9.80176 20.5024C9.24947 20.5024 8.80176 20.9502 8.80176 21.5024C8.80176 22.0547 9.24947 22.5024 9.80176 22.5024Z" stroke="#0C030F" stroke-width="2" stroke-linecap="round" stroke-linejoin="round"/>
<path d="M20.8018 22.5024C21.354 22.5024 21.8018 22.0547 21.8018 21.5024C21.8018 20.9502 21.354 20.5024 20.8018 20.5024C20.2495 20.5024 19.8018 20.9502 19.8018 21.5024C19.8018 22.0547 20.2495 22.5024 20.8018 22.5024Z" stroke="#0C030F" stroke-width="2" stroke-linecap="round" stroke-linejoin="round"/>
<path d="M1.80176 1.50244H5.80176L8.48176 14.8924C8.5732 15.3528 8.82367 15.7664 9.1893 16.0607C9.55494 16.3551 10.0125 16.5114 10.4818 16.5024H20.2018C20.6711 16.5114 21.1286 16.3551 21.4942 16.0607C21.8599 15.7664 22.1103 15.3528 22.2018 14.8924L23.8018 6.50244H6.80176" stroke="#0C030F" stroke-width="2" stroke-linecap="round" stroke-linejoin="round"/>
</g>
<defs>
<clipPath id="clip0_2286_233">
<rect width="24" height="24" fill="#0C030F" transform="translate(0.801758 0.502441)"/>
</clipPath>
</defs>
</svg>
